<svg width="30" height="27" viewBox="0 0 30 27" fill="none" xmlns="http://www.w3.org/2000/svg">
<g opacity="0.2">
<path d="M23.4556 9.94043C23.4556 11.5391 22.9372 13.0055 22.0451 14.2293C20.7431 15.9934 18.6816 17.2392 16.2825 17.559C15.8726 17.6251 15.4507 17.6582 15.0167 17.6582C14.5827 17.6582 14.1607 17.6251 13.7508 17.559C11.3518 17.2392 9.29027 15.9934 7.98827 14.2293C7.09616 13.0055 6.57777 11.5391 6.57777 9.94043C6.57777 5.6736 10.3512 2.22266 15.0167 2.22266C19.6822 2.22266 23.4556 5.6736 23.4556 9.94043Z" stroke="#292D32" stroke-width="1.5" stroke-linecap="round" stroke-linejoin="round"/>
<path d="M26.1681 20.3815L24.1789 20.8115C23.7328 20.9107 23.3832 21.2194 23.2868 21.6274L22.8648 23.2481C22.6358 24.1301 21.4061 24.3948 20.7672 23.7002L15.0167 17.6582L9.26617 23.7112C8.62722 24.4058 7.39756 24.1411 7.1685 23.2591L6.74656 21.6384C6.63806 21.2304 6.28845 20.9107 5.85445 20.8225L3.86528 20.3925C2.94906 20.1941 2.62356 19.1466 3.28661 18.5403L7.98828 14.2404C9.29028 16.0044 11.3518 17.2503 13.7508 17.57C14.1607 17.6362 14.5827 17.6693 15.0167 17.6693C15.4507 17.6693 15.8726 17.6362 16.2825 17.57C18.6816 17.2503 20.7431 16.0044 22.0451 14.2404L26.7467 18.5403C27.4098 19.1356 27.0843 20.1831 26.1681 20.3815Z" stroke="#292D32" stroke-width="1.5" stroke-linecap="round" stroke-linejoin="round"/>
<path d="M15.7159 6.61076L16.4272 7.91175C16.5236 8.08816 16.7768 8.26457 17.0058 8.29765L18.2958 8.49609C19.1156 8.61737 19.3085 9.16865 18.7177 9.70889L17.7171 10.624C17.5483 10.7783 17.4519 11.076 17.5122 11.2966L17.8015 12.4322C18.0306 13.3252 17.5122 13.678 16.6442 13.2039L15.4386 12.5534C15.2216 12.4322 14.86 12.4322 14.643 12.5534L13.4374 13.2039C12.5694 13.667 12.051 13.3252 12.2801 12.4322L12.5694 11.2966C12.6176 11.0871 12.5332 10.7783 12.3645 10.624L11.3638 9.70889C10.7731 9.16865 10.966 8.6284 11.7858 8.49609L13.0757 8.29765C13.2927 8.26457 13.5459 8.08816 13.6423 7.91175L14.3536 6.61076C14.7032 5.90514 15.3301 5.90514 15.7159 6.61076Z" stroke="#292D32" stroke-width="1.5" stroke-linecap="round" stroke-linejoin="round"/>
</g>
</svg>
