<svg width="30" height="27" viewBox="0 0 30 27" fill="none" xmlns="http://www.w3.org/2000/svg">
<g opacity="0.2">
<path d="M22.2259 11.8866V16.2968C22.2259 16.5835 22.2138 16.8591 22.1777 17.1237C21.9004 20.1006 19.9836 21.5779 16.4513 21.5779H15.9691C15.6677 21.5779 15.3783 21.7102 15.1975 21.9308L13.7509 23.6948C13.1119 24.4776 12.0751 24.4776 11.4362 23.6948L9.98949 21.9308C9.83277 21.7433 9.48318 21.5779 9.21796 21.5779H8.73574C4.89002 21.5779 2.96112 20.707 2.96112 16.2968V11.8866C2.96112 8.6562 4.58863 6.90316 7.83157 6.64958C8.12091 6.6165 8.4223 6.60547 8.73574 6.60547H16.4513C20.297 6.60547 22.2259 8.36954 22.2259 11.8866Z" stroke="#292D32" stroke-width="1.5" stroke-miterlimit="10" stroke-linecap="round" stroke-linejoin="round"/>
<path d="M27.0481 7.47648V11.8866C27.0481 15.1281 25.4206 16.8701 22.1777 17.1237C22.2138 16.8591 22.2259 16.5835 22.2259 16.2968V11.8866C22.2259 8.36954 20.297 6.60547 16.4513 6.60547H8.73574C8.4223 6.60547 8.12091 6.6165 7.83157 6.64958C8.10885 3.68375 10.0257 2.19531 13.558 2.19531H21.2735C25.1192 2.19531 27.0481 3.95938 27.0481 7.47648Z" stroke="#292D32" stroke-width="1.5" stroke-miterlimit="10" stroke-linecap="round" stroke-linejoin="round"/>
<path d="M16.8196 14.5989H16.8304" stroke="#292D32" stroke-width="2" stroke-linecap="round" stroke-linejoin="round"/>
<path d="M12.6001 14.5989H12.611" stroke="#292D32" stroke-width="2" stroke-linecap="round" stroke-linejoin="round"/>
<path d="M8.38069 14.5989H8.39154" stroke="#292D32" stroke-width="2" stroke-linecap="round" stroke-linejoin="round"/>
</g>
</svg>
