<svg width="30" height="27" viewBox="0 0 30 27" fill="none" xmlns="http://www.w3.org/2000/svg">
<g opacity="0.2">
<path d="M26.7946 12.3387V5.19711C26.7946 3.62176 26.023 2.99162 24.1061 2.99162H19.2357C17.3188 2.99162 16.5472 3.62176 16.5472 5.19711V12.3387C16.5472 13.914 17.3188 14.5442 19.2357 14.5442H24.1061C26.023 14.5442 26.7946 13.914 26.7946 12.3387Z" fill="#292D32"/>
<path d="M26.7946 21.7908V19.9004C26.7946 18.325 26.023 17.6949 24.1061 17.6949H19.2357C17.3188 17.6949 16.5472 18.325 16.5472 19.9004V21.7908C16.5472 23.3661 17.3188 23.9963 19.2357 23.9963H24.1061C26.023 23.9963 26.7946 23.3661 26.7946 21.7908Z" fill="#292D32"/>
<path d="M12.9305 14.6492V21.7908C12.9305 23.3661 12.159 23.9963 10.2421 23.9963H5.37164C3.45479 23.9963 2.68323 23.3661 2.68323 21.7908V14.6492C2.68323 13.0739 3.45479 12.4437 5.37164 12.4437H10.2421C12.159 12.4437 12.9305 13.0739 12.9305 14.6492Z" fill="#292D32"/>
<path d="M12.9305 5.19711V7.08753C12.9305 8.66288 12.159 9.29302 10.2421 9.29302H5.37164C3.45479 9.29302 2.68323 8.66288 2.68323 7.08753V5.19711C2.68323 3.62176 3.45479 2.99162 5.37164 2.99162H10.2421C12.159 2.99162 12.9305 3.62176 12.9305 5.19711Z" fill="#292D32"/>
</g>
</svg>
