<svg width="30" height="26" viewBox="0 0 30 26" fill="none" xmlns="http://www.w3.org/2000/svg">
<g opacity="0.2">
<path d="M14.7389 16.4949C16.7363 16.4949 18.3556 15.0843 18.3556 13.3442C18.3556 11.6041 16.7363 10.1935 14.7389 10.1935C12.7414 10.1935 11.1222 11.6041 11.1222 13.3442C11.1222 15.0843 12.7414 16.4949 14.7389 16.4949Z" stroke="#292D32" stroke-width="1.5" stroke-miterlimit="10" stroke-linecap="round" stroke-linejoin="round"/>
<path d="M2.68323 14.2684V12.42C2.68323 11.3277 3.70796 10.4245 4.9738 10.4245C7.15588 10.4245 8.048 9.08023 6.95093 7.43137C6.32404 6.48616 6.69776 5.25739 7.79483 4.71127L9.88046 3.67154C10.8329 3.17793 12.0625 3.47199 12.6291 4.30168L12.7618 4.50122C13.8468 6.15009 15.631 6.15009 16.7281 4.50122L16.8607 4.30168C17.4273 3.47199 18.657 3.17793 19.6094 3.67154L21.695 4.71127C22.7921 5.25739 23.1658 6.48616 22.5389 7.43137C21.4418 9.08023 22.334 10.4245 24.516 10.4245C25.7698 10.4245 26.8066 11.3172 26.8066 12.42V14.2684C26.8066 15.3606 25.7819 16.2638 24.516 16.2638C22.334 16.2638 21.4418 17.6081 22.5389 19.257C23.1658 20.2127 22.7921 21.431 21.695 21.9771L19.6094 23.0168C18.657 23.5104 17.4273 23.2164 16.8607 22.3867L16.7281 22.1871C15.6431 20.5383 13.8588 20.5383 12.7618 22.1871L12.6291 22.3867C12.0625 23.2164 10.8329 23.5104 9.88046 23.0168L7.79483 21.9771C6.69776 21.431 6.32404 20.2022 6.95093 19.257C8.048 17.6081 7.15588 16.2638 4.9738 16.2638C3.70796 16.2638 2.68323 15.3606 2.68323 14.2684Z" stroke="#292D32" stroke-width="1.5" stroke-miterlimit="10" stroke-linecap="round" stroke-linejoin="round"/>
</g>
</svg>
